<svg id="Layer_5" enable-background="new 0 0 64 64" height="512" viewBox="0 0 64 64" width="512" xmlns="http://www.w3.org/2000/svg"><path d="m43 46c0-1.654-1.346-3-3-3s-3 1.346-3 3c0 1.302.839 2.402 2 2.816v2.369c-1.161.414-2 1.514-2 2.816 0 1.654 1.346 3 3 3s3-1.346 3-3c0-1.302-.839-2.402-2-2.816v-2.369c1.161-.414 2-1.514 2-2.816z"/><path d="m63 17.586-6.586-6.586h-1.598c-.414-1.161-1.514-2-2.816-2-1.654 0-3 1.346-3 3 0 1.302.839 2.402 2 2.816v1.184h-5.586l-2.715-2.715c.188-.391.301-.823.301-1.285 0-1.654-1.346-3-3-3s-3 1.346-3 3 1.346 3 3 3c.462 0 .894-.113 1.285-.301l3.301 3.301h6.414v1.586l-3.414 3.414h-.77c-.414-1.161-1.514-2-2.816-2-1.654 0-3 1.346-3 3 0 .462.113.894.301 1.285l-1.073 1.073c.308.695.517 1.431.641 2.187l1.846-1.846c.391.188.823.301 1.285.301 1.302 0 2.402-.839 2.816-2h1.598l4.586-4.586v-5.598c.847-.302 1.514-.969 1.816-1.816h.77l5.414 5.414v10.172l-1.715 1.715c-.391-.188-.823-.301-1.285-.301-1.654 0-3 1.346-3 3 0 .462.113.894.301 1.285l-2.715 2.715h-1.77c-.414-1.161-1.514-2-2.816-2-1.654 0-3 1.346-3 3s1.346 3 3 3c1.302 0 2.402-.839 2.816-2h2.598l3.301-3.301c.391.188.823.301 1.285.301s.894-.113 1.285-.301l1.715 1.715v7.172l-4.414 4.414h-1.77c-.414-1.161-1.514-2-2.816-2-1.654 0-3 1.346-3 3 0 1.302.839 2.402 2 2.816v2.77l-5.414 5.414h-7.172l-5.414-5.414v-4.77c1.161-.414 2-1.514 2-2.816s-.839-2.402-2-2.816v-2.184h-2v2.184c-1.161.414-2 1.514-2 2.816s.839 2.402 2 2.816v4.77l-5.414 5.414h-7.172l-5.414-5.414v-2.77c1.161-.414 2-1.514 2-2.816 0-1.654-1.346-3-3-3-1.302 0-2.402.839-2.816 2h-1.77l-4.414-4.414v-7.172l1.715-1.715c.391.188.823.301 1.285.301s.894-.113 1.285-.301l3.301 3.301h2.598c.414 1.161 1.514 2 2.816 2 1.654 0 3-1.346 3-3s-1.346-3-3-3c-1.302 0-2.402.839-2.816 2h-1.77l-2.715-2.715c.188-.391.301-.823.301-1.285 0-1.654-1.346-3-3-3-.462 0-.894.113-1.285.301l-1.715-1.715v-10.172l5.414-5.414h.77c.302.847.969 1.514 1.816 1.816v5.598l4.586 4.586h1.598c.414 1.161 1.514 2 2.816 2 .462 0 .894-.113 1.285-.301l1.84 1.84c.123-.761.344-1.491.651-2.177l-1.076-1.076c.187-.392.3-.824.3-1.286 0-1.654-1.346-3-3-3-1.302 0-2.402.839-2.816 2h-.77l-3.414-3.414v-4.77c1.161-.414 2-1.514 2-2.816 0-.722-.266-1.375-.692-1.894l5.106-5.106h7.172l4.414 4.414v4.172l-1.414 1.414h-1.77c-.414-1.161-1.514-2-2.816-2-1.654 0-3 1.346-3 3s1.346 3 3 3c1.302 0 2.402-.839 2.816-2h2.598l2.586-2.586v-5l4.414-4.414h7.77c.414 1.161 1.514 2 2.816 2 1.654 0 3-1.346 3-3s-1.346-3-3-3c-1.302 0-2.402.839-2.816 2h-8.598l-4.586 4.586-4.586-4.586h-8.828l-6.054 6.054c-.173-.031-.35-.054-.532-.054-1.302 0-2.402.839-2.816 2h-1.598l-6.586 6.586v11.828l2.301 2.301c-.188.391-.301.823-.301 1.285s.113.894.301 1.285l-2.301 2.301v8.828l5.586 5.586h2.598c.302.847.969 1.514 1.816 1.816v3.598l6.586 6.586h8.828l5.586-5.586 5.586 5.586h8.828l6.586-6.586v-3.598c.847-.302 1.514-.969 1.816-1.816h2.598l5.586-5.586v-8.828l-2.301-2.301c.188-.391.301-.823.301-1.285s-.113-.894-.301-1.285l2.301-2.301z"/><path d="m25 48.816c1.161-.414 2-1.514 2-2.816 0-1.654-1.346-3-3-3s-3 1.346-3 3c0 1.302.839 2.402 2 2.816v.77l-1.715 1.715c-.391-.188-.823-.301-1.285-.301-1.654 0-3 1.346-3 3s1.346 3 3 3 3-1.346 3-3c0-.462-.113-.894-.301-1.285l2.301-2.301z"/><circle cx="32" cy="30" r="1"/><path d="m36.665 24.781c-1.3-1.163-2.93-1.781-4.656-1.781-.271 0-.544.015-.819.046-3.168.354-5.748 2.906-6.135 6.067-.271 2.213.501 4.362 2.067 5.887h3.878v-2.184c-1.161-.414-2-1.514-2-2.816 0-1.654 1.346-3 3-3s3 1.346 3 3c0 1.302-.839 2.402-2 2.816v2.184h3.886c1.349-1.315 2.114-3.1 2.114-5 0-1.99-.851-3.892-2.335-5.219z"/><path d="m28 40c0 .551.449 1 1 1h6c.551 0 1-.449 1-1v-3h-8z"/></svg>